<svg width="557.666" height="557.667" xmlns="http://www.w3.org/2000/svg">
 <g>
  <title>background</title>
  <rect x="-1" y="-1" width="559.666" height="559.667" id="canvas_background" fill="none"/>
 </g>

 <g>
  <title>Layer 1</title>
  <path id="location-icon_1_" fill="#FFEB3B" d="m186.350006,19.228001c-72.071999,0 -130.5,55.802998 -130.5,124.639004s57.113983,148.833984 130.5,268.855988c73.388,-120.021027 130.5,-200.020996 130.5,-268.855988s-58.425995,-124.639004 -130.5,-124.639004zm0,166.311001c-25.847992,0 -46.800995,-20.011002 -46.800995,-44.697998c0,-24.685997 20.953003,-44.697998 46.800995,-44.697998c25.848007,0 46.800995,20.012001 46.800995,44.697998c-0.001007,24.686996 -20.953995,44.697998 -46.800995,44.697998z"/>
  <path id="location-icon_2_" fill="#FF5252" d="m320.984009,24.003c-72.072006,0 -130.5,55.802999 -130.5,124.638998s57.113007,148.834015 130.5,268.855988c73.388,-120.020996 130.5,-200.020996 130.5,-268.855988s-58.425018,-124.638998 -130.5,-124.638998zm0,166.310995c-25.847992,0 -46.800995,-20.011002 -46.800995,-44.697998c0,-24.686012 20.953003,-44.698013 46.800995,-44.698013s46.800995,20.012001 46.800995,44.698013c0,24.686996 -20.953003,44.697998 -46.800995,44.697998z"/>
  <path id="location-icon" fill="#536DFE" d="m255.850006,133.837997c-72.071991,0 -130.499985,55.802002 -130.499985,124.638992c0,68.835999 57.113983,148.834015 130.499985,268.856018c73.388,-120.021027 130.5,-200.021027 130.5,-268.856018c0,-68.83699 -58.425995,-124.638992 -130.5,-124.638992zm0,166.310989c-25.847992,0 -46.800995,-20.010986 -46.800995,-44.698013c0,-24.685989 20.953003,-44.697998 46.800995,-44.697998c25.847992,0 46.800995,20.012009 46.800995,44.697998c-0.001007,24.688034 -20.95401,44.698013 -46.800995,44.698013z"/>
  <path fill="#fff" stroke="#000" stroke-width="1.5" id="svg_1"/>
  <path fill="#fff" stroke-width="0" stroke-opacity="null" fill-opacity="null" id="svg_2" d="m253.833038,136.122925c59.639679,-164.613907 293.302582,0 0,211.646423c-293.302551,-211.646423 -59.639984,-376.260345 0,-211.646423z" stroke="#000"/>
 </g>
</svg>